<svg id="Layer_1" data-name="Layer 1" xmlns="http://www.w3.org/2000/svg" viewBox="0 0 776 1354"><defs><style>.cls-1{fill:#3844e9;}.cls-2{fill:#3052e2;}</style></defs><title>about-background-mobile</title><path class="cls-1" d="M-13.84-20c.29-1-.48,556.08,0,883.91.17,109.75,15,166.54,41.84,240.09,27.6,75.64,62.8,105.22,98,121,8.95,4,82.28,25.25,139-28,26.78-25.14,21.45-22.32,72.86-88.12,79.2-101.36,113.6-118,150.4-61.24,37.37,57.58,35.68,144,70.12,212.3,58.91,116.76,194.29,111,200.16-130.65,6.68-275.06,2-811.44,0-1135" transform="translate(14 20)"/><path class="cls-2" d="M286.08,279.7c4.78,138.42,103.43,161.1,97.32,306.62-3.77,89.5,47.08,264.17,110.73,249.85,58.9-13.25,37.53,8,114.1-22.71,57.36-23,81.58,8,99-37.86,18.89-49.76-1.22-108.36,5-261.2,5.31-129.6,21.73-135.35,20.13-208.21C728,103.4,531.37,96.74,521,86.63,484,50.63,281.43,145.16,286.08,279.7Z" transform="translate(14 20)"/></svg>