<svg id="Layer_1" data-name="Layer 1" xmlns="http://www.w3.org/2000/svg" viewBox="0 0 1450 662.78"><defs><style>.cls-1{fill:#3844e9;}.cls-2{fill:#3052e2;}</style></defs><title>about-background</title><path class="cls-1" d="M-50.71-263c.53.5-.86,284.34,0,432.67C-50.4,223.39,18.81,261.81,69,297.81c51.57,37,112.51,64,178.28,71.71,16.72,2,38.27,10.72,144.25-15.35,50-12.31,118.91-32.38,215-64.59,148-49.61,212.28-57.74,281-30,69.83,28.18,66.66,70.51,131,103.92,110.08,57.15,363,54.35,374-63.95,12.49-134.65,3.7-397.2,0-555.59" transform="translate(51 263)"/><path class="cls-2" d="M813-58c5.7,73.13,123.29,85.11,116,162-4.48,47.28,56.13,139.57,132,132,70.2-7,44.72,4.22,136-12,68.38-12.15,97.25,4.24,118-20,22.51-26.29-1.46-57.25,6-138,6.33-68.47,25.9-71.51,24-110-5.3-107.14-239.61-110.66-252-116C1048.88-179,807.46-129.08,813-58Z" transform="translate(51 263)"/></svg>